<?xml version="1.0" encoding="UTF-8" standalone="no"?>
<!-- Created with Inkscape (http://www.inkscape.org/) -->

<svg
   width="400mm"
   height="400mm"
   viewBox="0 0 400 400"
   version="1.1"
   id="svg1"
   xml:space="preserve"
   sodipodi:docname="aetheris_logo_final3.svg"
   inkscape:version="1.4.2 (ebf0e940d0, 2025-05-08)"
   xmlns:inkscape="http://www.inkscape.org/namespaces/inkscape"
   xmlns:sodipodi="http://sodipodi.sourceforge.net/DTD/sodipodi-0.dtd"
   xmlns="http://www.w3.org/2000/svg"
   xmlns:svg="http://www.w3.org/2000/svg"><sodipodi:namedview
     id="namedview1"
     pagecolor="#000000"
     bordercolor="#eeeeee"
     borderopacity="1"
     inkscape:showpageshadow="0"
     inkscape:pageopacity="0"
     inkscape:pagecheckerboard="0"
     inkscape:deskcolor="#505050"
     inkscape:document-units="mm"
     inkscape:zoom="0.35634119"
     inkscape:cx="383.05984"
     inkscape:cy="840.48661"
     inkscape:window-width="1920"
     inkscape:window-height="1011"
     inkscape:window-x="0"
     inkscape:window-y="0"
     inkscape:window-maximized="1"
     inkscape:current-layer="layer1" /><defs
     id="defs1"><inkscape:path-effect
       effect="fillet_chamfer"
       id="path-effect5"
       is_visible="true"
       lpeversion="1"
       nodesatellites_param="F,0,0,1,0,0,0,1 @ F,0,0,1,0,0,0,1 @ F,0,0,1,0,0,0,1 @ F,0,0,1,0,0,0,1"
       radius="0"
       unit="px"
       method="auto"
       mode="F"
       chamfer_steps="1"
       flexible="false"
       use_knot_distance="true"
       apply_no_radius="true"
       apply_with_radius="true"
       only_selected="false"
       hide_knots="false" /></defs><g
     inkscape:label="Layer 1"
     inkscape:groupmode="layer"
     id="layer1"><path
       style="fill:none;fill-opacity:1;stroke-width:0.264999;stroke-dasharray:none"
       d="m 115.30387,239.23205 c 7.08786,-4.72524 7.61289,-4.33147 7.61289,-4.33147 l 1.44383,11.15682 z"
       id="path3" /><path
       id="path4-0"
       style="fill:#ffffff;fill-opacity:1;stroke-width:0.594742;stroke-dasharray:none"
       d="m 255.02178,143.80533 a 43.001793,103.28604 64.088271 0 0 -48.74948,10.73061 c 1.28006,3.12712 1.9692,5.0744 2.43086,6.70812 a 35.585183,84.256467 63.322876 0 1 36.49339,-7.80831 35.585183,84.256467 63.322876 0 1 32.28174,12.18841 35.585183,84.256467 63.322876 0 1 -50.6832,64.13148 l 1.66139,7.97057 a 43.001793,103.28604 64.088271 0 0 66.32154,-79.26079 43.001793,103.28604 64.088271 0 0 -39.75624,-14.66009 z m -59.98806,15.12518 a 43.001793,103.28604 64.088271 0 0 -11.03137,4.96145 43.001793,103.28604 64.088271 0 0 -7.03369,3.51089 c -0.32026,2.47579 -1.18334,6.23709 -2.04276,9.49349 a 35.585183,84.256467 63.322876 0 1 12.60336,-6.76083 35.585183,84.256467 63.322876 0 1 6.05286,-2.84634 c 0.25521,-1.67498 0.41994,-2.67577 0.70797,-4.18941 0.31495,-1.6551 0.53892,-2.886 0.74363,-4.16925 z m -34.61546,17.90743 a 43.001793,103.28604 64.088271 0 0 -31.52883,24.32772 c 0.55506,0.17354 1.08587,0.35012 1.58389,0.52813 3.46823,1.23965 6.33336,2.2725 8.7452,3.16776 a 35.585183,84.256467 63.322876 0 1 19.02054,-16.97571 l 5.2e-4,1e-5 1.59783,-7.75871 c 0.20611,-1.21467 0.39926,-2.2935 0.58085,-3.2892 z m -42.02173,36.00814 a 43.001793,103.28604 64.088271 0 0 -9.87071,34.93223 43.001793,103.28604 64.088271 0 0 89.12892,3.70313 c -1.98575,-1.56347 -4.17156,-2.94455 -8.15247,-5.39863 a 35.585183,84.256467 63.322876 0 1 -63.25971,-6.20738 35.585183,84.256467 63.322876 0 1 4.2075,-23.44662 c -5.38372,-2.1311 -7.45337,-2.8058 -12.05353,-3.58273 z m 101.31371,20.74706 a 35.585183,84.256467 63.322876 0 1 -3.51865,1.77094 35.585183,84.256467 63.322876 0 1 -10.59418,4.82038 c 1.3608,1.06526 2.64766,2.13337 3.70417,3.1166 0.9274,0.86309 1.79884,1.67547 2.61896,2.44224 a 43.001793,103.28604 64.088271 0 0 7.38094,-3.39153 43.001793,103.28604 64.088271 0 0 6.27404,-3.11816 z" /><path
       id="path1"
       style="fill:#ffffff;fill-opacity:1;fill-rule:nonzero;stroke-width:0.265;stroke-dasharray:none"
       d="m 183.40807,77.474496 c 3.00847,43.740774 -3.95031,84.911334 -12.79819,116.153634 -18.78683,1.25109 -39.8215,2.01432 -62.91915,2.02675 0,0 26.21276,7.01512 46.15893,14.14281 2.81078,0.92002 5.79232,1.98949 8.04861,3.03289 0.79434,0.31859 1.56661,0.63545 2.31304,0.94981 -0.0124,0.035 -0.0248,0.0699 -0.0372,0.1049 6.35519,2.9518 10.37006,4.87623 13.30513,6.49728 0.28949,0.15988 0.60666,0.34765 0.9462,0.55862 8.91048,5.12526 14.48991,9.77985 27.44535,19.60346 20.54573,18.00375 27.56429,26.51371 34.91466,35.17666 7.35038,8.66294 28.87628,34.91415 28.87628,34.91415 0,0 -12.90691,-52.72087 -30.57333,-108.56805 12.22567,-2.86027 24.55263,-6.12203 33.84703,-9.44025 8.26417,-2.95042 17.233,-5.47989 14.5371,-18.07487 -4.58017,-21.39813 -10.35922,-13.85506 -9.48728,-8.36228 0.71006,4.473 1.32774,4.53809 -0.66301,7.74423 -1.9255,3.10105 -16.93556,8.14267 -43.25369,12.58838 C 218.40591,139.05285 199.86487,92.634534 183.40807,77.474496 Z m 13.81311,60.208724 c 6.52896,6.52897 13.79194,28.92277 19.77243,51.4072 -0.008,0.001 -0.0165,0.002 -0.0248,0.003 1.86547,6.26862 3.71282,12.80994 4.3031,16.90905 8.7e-4,-1.8e-4 0.002,-3.4e-4 0.003,-5.2e-4 0.0194,0.0803 0.0386,0.16071 0.0584,0.24081 5.01305,20.29345 8.12956,36.67172 8.12956,36.67172 0,0 -15.45371,-15.23327 -19.91643,-18.12091 -4.46273,-2.88765 -17.58808,-13.1253 -17.58808,-13.1253 0,0 11.38107,-1.96861 26.33121,-5.04672 -6.68669,-8.12742 -16.69705,-14.68628 -22.51284,-15.07195 -2.72953,0.27173 -5.52195,0.53349 -8.37675,0.78445 2.57418,-8.01439 8.44765,-28.73651 9.82163,-54.65093 z m -38.0106,89.1496 c -4.29658,10.35305 -8.26262,17.7657 -11.02672,21.44417 -1.68039,2.23627 -2.9214,3.40028 -4.54959,2.96209 -3.73668,-1.00563 19.44687,8.20674 19.44687,8.20674 l 9.32191,-25.63513 c -2.29306,-1.34722 -5.15917,-2.90564 -9.33173,-5.02812 -1.49045,-0.75815 -2.75134,-1.39851 -3.86074,-1.94975 z"
       sodipodi:nodetypes="cccccccsccsccsssscccccccccsccccccssccsc" /><path
       style="fill:none;fill-opacity:1;stroke-width:0.264999;stroke-dasharray:none"
       d="m 439.17761,250.56722 c 7.08786,-4.72524 7.61289,-4.33147 7.61289,-4.33147 l 1.44383,11.15682 z"
       id="path3-4" /><path
       style="fill:#ffffff;fill-opacity:0;stroke-width:0.231198;stroke-dasharray:none"
       d="m 176.26551,83.151803 c 0,0 2.3341,11.085631 2.15629,20.810447 -0.25075,13.7143 -2.04098,25.48968 -2.04098,25.48968 l -9.6286,-25.16156 z"
       id="path5"
       sodipodi:nodetypes="csccc" /><path
       style="fill:#ffffff;fill-opacity:0;stroke-width:0.292597;stroke-dasharray:none"
       d="m 210.5515,261.46039 c 0,0 6.28121,2.43488 19.68784,16.9212 20.53752,22.19149 21.86006,25.67423 21.86006,25.67423 l -33.14365,-23.37525 z"
       id="path5-3"
       sodipodi:nodetypes="csccc" /></g></svg>
